<?xml version="1.0" standalone="no"?>
<!DOCTYPE svg PUBLIC "-//W3C//DTD SVG 20010904//EN"
 "http://www.w3.org/TR/2001/REC-SVG-20010904/DTD/svg10.dtd">
<svg version="1.0" xmlns="http://www.w3.org/2000/svg"
 width="350.000000pt" height="350.000000pt" viewBox="0 0 350.000000 350.000000"
 preserveAspectRatio="xMidYMid meet">
<metadata>
Created by potrace 1.10, written by Peter Selinger 2001-2011
</metadata>
<g transform="translate(0.000000,350.000000) scale(0.100000,-0.100000)"
fill="#000000" stroke="none">
<path d="M1620 3289 c-92 -12 -192 -31 -215 -39 -11 -5 -40 -14 -65 -21 -284
-82 -576 -287 -762 -534 -120 -159 -224 -369 -262 -530 -32 -133 -35 -150 -46
-272 -22 -229 19 -495 108 -701 64 -148 138 -272 231 -388 187 -232 444 -408
716 -491 95 -29 126 -37 271 -62 78 -14 320 -14 398 0 145 25 176 33 271 61
314 96 630 337 810 619 123 191 182 343 234 607 13 66 14 397 2 455 -5 23 -15
69 -21 102 -19 92 -34 142 -74 239 -173 429 -524 756 -956 892 -90 28 -106 33
-160 43 -164 31 -343 38 -480 20z m-325 -792 c98 -32 159 -66 242 -135 120
-102 211 -134 312 -112 78 17 125 43 207 115 123 107 248 155 405 155 170 0
293 -49 421 -170 108 -101 162 -209 187 -375 10 -66 -5 -198 -32 -273 -43
-124 -178 -278 -287 -330 -76 -36 -211 -70 -290 -74 l-55 -3 -6 -95 c-8 -118
-16 -148 -65 -240 -74 -141 -203 -249 -359 -300 -99 -32 -261 -32 -360 0 -121
40 -259 137 -318 225 -67 98 -117 251 -117 355 l0 60 -54 0 c-60 0 -191 30
-261 60 -120 52 -225 157 -290 292 -40 84 -48 121 -52 243 -4 92 -1 121 17
180 68 216 198 350 410 421 94 32 249 32 345 1z"/>
<path d="M1015 2228 c-74 -27 -157 -103 -192 -178 -35 -75 -37 -201 -3 -272
42 -91 100 -141 213 -187 36 -14 148 -14 184 0 135 54 190 112 231 240 24 72
4 199 -39 257 -83 110 -163 152 -289 151 -41 0 -88 -5 -105 -11z m156 -162
c58 -24 109 -95 109 -150 0 -41 -28 -93 -67 -125 -33 -27 -45 -31 -101 -31
-61 0 -64 1 -107 45 -44 43 -45 46 -45 107 0 56 4 68 31 101 51 62 115 80 180
53z"/>
<path d="M2370 2233 c-96 -35 -175 -105 -211 -188 -31 -72 -31 -201 0 -267 31
-65 91 -130 143 -155 79 -38 99 -43 163 -43 61 0 75 4 152 37 126 54 214 245
172 374 -39 122 -108 196 -219 236 -35 13 -171 17 -200 6z m147 -174 c63 -31
88 -71 88 -144 0 -100 -55 -155 -155 -155 -100 0 -155 55 -155 155 0 73 24
112 87 144 54 26 81 26 135 0z"/>
<path d="M1715 1566 c-86 -26 -147 -69 -196 -138 -118 -165 -51 -396 140 -490
65 -32 205 -32 272 1 74 35 125 86 160 157 28 57 32 74 31 147 0 66 -5 93 -25
137 -67 146 -237 229 -382 186z"/>
</g>
</svg>
