<?xml version="1.0" standalone="no"?>
<!DOCTYPE svg PUBLIC "-//W3C//DTD SVG 20010904//EN"
 "http://www.w3.org/TR/2001/REC-SVG-20010904/DTD/svg10.dtd">
<svg version="1.0" xmlns="http://www.w3.org/2000/svg"
 width="900.000000pt" height="270.000000pt" viewBox="0 0 900.000000 270.000000"
 preserveAspectRatio="xMidYMid meet">
<metadata>
Created by potrace 1.10, written by Peter Selinger 2001-2011
</metadata>
<g transform="translate(0.000000,270.000000) scale(0.100000,-0.100000)"
fill="#000000" stroke="none">
<path d="M7195 2548 c-3 -13 -4 -545 -3 -1183 l3 -1160 225 0 225 0 6 525 c4
289 11 545 16 570 27 128 127 230 256 260 98 23 221 -8 296 -74 32 -28 72 -93
84 -136 6 -20 13 -264 16 -590 l6 -555 230 0 230 0 -1 590 c-1 560 -2 594 -21
670 -41 158 -89 250 -175 331 -44 42 -169 114 -199 114 -9 0 -36 7 -60 15 -66
24 -305 23 -384 0 -75 -22 -212 -86 -244 -114 -14 -12 -29 -20 -35 -18 -8 3
-13 128 -16 388 l-5 384 -222 3 -223 2 -5 -22z"/>
<path d="M6031 2397 c-7 -9 -12 -90 -13 -228 l-3 -214 -89 -3 c-50 -2 -96 -8
-103 -14 -17 -14 -19 -373 -2 -384 6 -3 42 -6 80 -5 38 1 80 -1 94 -5 l25 -6
0 -500 c0 -528 5 -600 50 -688 18 -35 94 -110 131 -130 90 -49 328 -77 494
-60 55 6 103 14 107 18 9 9 12 357 3 372 -4 6 -48 10 -107 10 -206 0 -218 32
-218 602 l0 368 27 11 c14 5 88 9 164 8 75 -1 142 1 148 5 7 5 11 65 11 186 0
149 -3 181 -16 194 -13 13 -42 16 -163 16 -101 0 -151 4 -159 12 -9 9 -12 71
-12 218 0 147 -3 209 -12 218 -18 18 -421 17 -437 -1z"/>
<path d="M4120 2374 c-123 -17 -174 -31 -322 -91 -119 -48 -304 -177 -393
-274 -211 -231 -318 -498 -318 -799 0 -194 43 -365 134 -536 117 -220 269
-371 501 -498 183 -101 444 -153 668 -134 232 20 401 78 588 201 179 119 312
273 410 478 83 173 112 297 112 489 0 201 -39 363 -129 533 -58 109 -66 121
-159 230 -196 227 -475 372 -785 406 -120 14 -174 13 -307 -5z m-209 -603 c71
-24 122 -53 190 -109 135 -109 258 -108 385 1 32 28 93 66 134 86 69 33 84 36
182 39 90 3 118 0 172 -18 172 -57 306 -213 327 -381 18 -147 -20 -270 -118
-379 -87 -97 -179 -141 -328 -157 l-70 -8 -3 -35 c-13 -195 -113 -349 -274
-425 -224 -105 -482 -35 -622 169 -41 59 -76 165 -76 227 0 58 -8 69 -49 69
-60 0 -169 28 -228 57 -75 38 -161 126 -202 209 -64 129 -65 272 -3 404 54
116 146 198 273 245 84 31 229 34 310 6z"/>
<path d="M3671 1558 c-177 -68 -225 -287 -89 -414 101 -96 260 -100 356 -10
146 137 103 353 -84 425 -69 26 -113 26 -183 -1z m145 -124 c34 -16 74 -75 74
-109 0 -9 -9 -33 -20 -54 -45 -89 -168 -93 -220 -8 -36 59 -18 130 43 167 39
24 78 25 123 4z"/>
<path d="M4739 1562 c-60 -23 -105 -56 -133 -101 -110 -174 11 -391 218 -391
115 0 214 72 249 181 22 67 21 87 -4 155 -27 72 -79 124 -153 152 -68 26 -114
27 -177 4z m131 -127 c67 -35 92 -125 49 -179 -64 -81 -186 -70 -224 20 -19
45 -18 60 3 104 29 61 111 87 172 55z"/>
<path d="M4196 1040 c-103 -40 -159 -124 -159 -235 0 -59 4 -79 26 -116 54
-92 124 -132 231 -132 112 0 186 46 240 150 23 46 21 152 -4 208 -54 118 -206
175 -334 125z"/>
<path d="M2325 2348 c-3 -7 -4 -485 -3 -1063 l3 -1050 208 -3 c114 -1 207 1
208 5 5 57 0 2103 -5 2111 -11 18 -405 17 -411 0z"/>
<path d="M935 2305 c-164 -17 -255 -40 -355 -88 -206 -100 -303 -230 -330
-440 -11 -86 -1 -194 25 -267 49 -141 194 -266 409 -354 60 -25 303 -81 481
-112 88 -15 183 -35 211 -46 58 -21 127 -76 149 -119 47 -90 -16 -199 -151
-259 -63 -29 -72 -30 -202 -30 -104 0 -155 5 -211 20 -171 46 -281 92 -417
176 -39 24 -77 44 -85 44 -8 0 -43 -41 -79 -91 -36 -50 -84 -117 -107 -150
-24 -32 -43 -68 -43 -79 0 -38 183 -152 350 -219 72 -28 112 -41 245 -75 157
-40 449 -40 630 0 263 59 435 196 504 400 30 91 38 258 17 353 -28 122 -64
188 -141 259 -97 89 -276 173 -420 197 -22 4 -65 13 -95 20 -84 21 -305 72
-395 91 -101 22 -167 56 -201 105 -22 33 -26 47 -22 87 12 124 127 182 367
182 115 0 145 -3 219 -26 85 -26 222 -88 315 -141 l48 -28 25 30 c14 17 50 64
80 105 30 41 73 101 97 133 l42 58 -25 19 c-48 37 -186 116 -277 158 -168 77
-425 111 -658 87z"/>
</g>
</svg>
